<svg width="34" height="32" viewBox="0 0 34 32" fill="none" xmlns="http://www.w3.org/2000/svg">
<path d="M16.9048 22.9295C17.0624 22.836 17.2585 22.8361 17.416 22.9299L23.0323 26.2766L23.0324 26.2767C23.6974 26.6732 24.4712 26.0801 24.3062 25.381L22.8176 19.0879C22.7744 18.9055 22.8369 18.7142 22.9795 18.5925L27.9462 14.3525L27.9464 14.3524C28.5063 13.8749 28.2172 12.9572 27.4604 12.8979L27.4578 12.8977L20.9212 12.3511C20.7371 12.3357 20.5765 12.22 20.5036 12.0504L17.9458 6.10369L17.9451 6.10211C17.6577 5.42747 16.6624 5.42747 16.3749 6.10211L16.3741 6.10407L13.8163 12.0374C13.7432 12.2069 13.5827 12.3223 13.3988 12.3377L6.86221 12.8844L6.8596 12.8846L6.8596 12.8846C6.1028 12.9439 5.81375 13.8616 6.3736 14.339L6.37377 14.3392L11.3405 18.5792C11.4831 18.7009 11.5456 18.8921 11.5024 19.0746L10.0138 25.3677L16.9048 22.9295ZM16.9048 22.9295L11.2885 26.2628L11.2876 26.2634M16.9048 22.9295L11.2876 26.2634M11.2876 26.2634C10.6227 26.6599 9.84899 26.0669 10.0138 25.3679L11.2876 26.2634Z" fill="#FFBA79" stroke="#FFBA79" stroke-linejoin="round"/>
</svg>
